<svg width="24" height="24" viewBox="0 0 24 24" fill="none" xmlns="http://www.w3.org/2000/svg">
<path d="M12 24C8.79469 24 5.78123 22.7518 3.51469 20.4853C1.24814 18.2188 0 15.2053 0 12C0 8.79469 1.24819 5.78123 3.51469 3.51469C5.78119 1.24814 8.79469 0 12 0C15.2053 0 18.2188 1.24819 20.4853 3.51469C22.7519 5.78119 24 8.79469 24 12C24 15.2053 22.7518 18.2188 20.4853 20.4853C18.2188 22.7519 15.2053 24 12 24ZM12 1.5C6.21028 1.5 1.5 6.21028 1.5 12C1.5 17.7897 6.21028 22.5 12 22.5C17.7897 22.5 22.5 17.7897 22.5 12C22.5 6.21028 17.7897 1.5 12 1.5Z" fill="#58585A"/>
<path d="M12 17.25C11.5858 17.25 11.25 16.9142 11.25 16.5C11.25 14.6069 11.9872 12.8272 13.3259 11.4885C14.1636 10.6507 14.625 9.53686 14.625 8.35205C14.625 7.05511 13.5699 6 12.273 6H12.102C10.8051 6 9.75 7.05511 9.75 8.35205V8.625C9.75 9.03919 9.41419 9.375 9 9.375C8.58581 9.375 8.25 9.03919 8.25 8.625V8.35205C8.25 6.228 9.978 4.5 12.102 4.5H12.273C14.397 4.5 16.125 6.228 16.125 8.35205C16.125 9.9375 15.5076 11.4281 14.3865 12.5492C13.3312 13.6045 12.75 15.0076 12.75 16.5C12.75 16.9142 12.4142 17.25 12 17.25Z" fill="#58585A"/>
<path d="M12.0008 20.25C11.5867 20.25 11.2506 19.9142 11.2506 19.5C11.2506 19.0858 11.5861 18.75 12.0004 18.75C12.4146 18.75 12.7508 19.0858 12.7508 19.5C12.7508 19.9142 12.415 20.25 12.0008 20.25Z" fill="#58585A"/>
</svg>
