<svg width="71" height="24" viewBox="0 0 71 24" fill="none" xmlns="http://www.w3.org/2000/svg">
<path d="M6.949 9.67742V8.70968H7.94171V7.74194H6.949V6.77419H5.95628V5.80645H4.96357V4.83871H5.95628V3.87097H6.949V2.90323H7.94171V1.93548H6.949V0.967742H5.95628V1.93548H4.96357V2.90323H3.97086V3.87097H2.97814V0.967742H0.992714V9.67742H2.97814V6.77419H3.97086V7.74194H4.96357V8.70968H5.95628V9.67742H6.949ZM0 11.6129V0H3.97086V0.967742H4.96357V0H7.94171V0.967742H8.93443V4.83871H7.94171V6.77419H8.93443V10.6452H7.94171V11.6129H4.96357V10.6452H3.97086V11.6129H0ZM18.1636 9.67742V7.74194H13.2V5.80645H17.1709V4.83871H13.2V2.90323H18.1636V0.967742H11.2146V9.67742H18.1636ZM10.2219 11.6129V0H19.1563V3.87097H18.1636V6.77419H19.1563V11.6129H10.2219ZM29.3781 9.67742V7.74194H24.4146V4.83871H25.4073V0.967742H23.4219V3.87097H22.4291V6.77419H21.4364V9.67742H29.3781ZM20.4437 11.6129V5.80645H21.4364V2.90323H22.4291V0H26.4V6.77419H30.3709V11.6129H20.4437ZM35.6291 6.77419V3.87097H38.6073V6.77419H35.6291ZM40.5927 9.67742V2.90323H39.6V1.93548H38.6073V0.967742H35.6291V2.90323H34.6364V4.83871H33.6437V6.77419H32.651V9.67742H35.6291V7.74194H37.6146V9.67742H40.5927ZM31.6583 11.6129V5.80645H32.651V3.87097H33.6437V1.93548H34.6364V0H39.6V0.967742H40.5927V1.93548H41.5854V11.6129H31.6583ZM50.8146 9.67742V8.70968H51.8073V5.80645H50.8146V4.83871H47.8364V3.87097H46.8437V2.90323H49.8219V3.87097H50.8146V2.90323H51.8073V1.93548H50.8146V0.967742H45.851V1.93548H44.8583V2.90323H43.8656V3.87097H44.8583V4.83871H46.8437V5.80645H48.8291V6.77419H49.8219V7.74194H46.8437V6.77419H45.851V5.80645H44.8583V6.77419H43.8656V7.74194H44.8583V8.70968H45.851V9.67742H50.8146ZM44.8583 11.6129V10.6452H43.8656V9.67742H42.8729V1.93548H43.8656V0.967742H44.8583V0H51.8073V0.967742H52.8V10.6452H51.8073V11.6129H44.8583ZM2.97814 20.129V18.1935H5.95628V20.129H2.97814ZM2.97814 17.2258V15.2903H5.95628V17.2258H2.97814ZM6.949 22.0645V21.0968H7.94171V20.129H8.93443V18.1935H7.94171V17.2258H6.949V16.2581H7.94171V14.3226H6.949V13.3548H0.992714V22.0645H6.949ZM0 24V12.3871H7.94171V13.3548H8.93443V17.2258H9.92714V22.0645H8.93443V23.0323H7.94171V24H0ZM19.1563 22.0645V21.0968H20.149V20.129H21.1417V14.3226H19.1563V19.1613H18.1636V20.129H15.1854V19.1613H14.1927V13.3548H12.2073V20.129H13.2V21.0968H14.1927V22.0645H19.1563ZM13.2 24V23.0323H12.2073V22.0645H11.2146V12.3871H15.1854V18.1935H18.1636V13.3548H22.1344V22.0645H21.1417V23.0323H20.149V24H13.2ZM30.3709 22.0645V21.0968H31.3636V20.129H30.3709V19.1613H29.3781V18.1935H28.3854V17.2258H29.3781V16.2581H30.3709V15.2903H31.3636V14.3226H30.3709V13.3548H29.3781V14.3226H28.3854V15.2903H27.3927V16.2581H26.4V13.3548H24.4146V22.0645H26.4V19.1613H27.3927V20.129H28.3854V21.0968H29.3781V22.0645H30.3709ZM23.4219 24V12.3871H27.3927V13.3548H28.3854V12.3871H31.3636V13.3548H32.3563V17.2258H31.3636V19.1613H32.3563V23.0323H31.3636V24H28.3854V23.0323H27.3927V24H23.4219ZM37.6146 19.1613V16.2581H40.5927V19.1613H37.6146ZM42.5781 22.0645V15.2903H41.5854V14.3226H40.5927V13.3548H37.6146V15.2903H36.6219V17.2258H35.6291V19.1613H34.6364V22.0645H37.6146V20.129H39.6V22.0645H42.5781ZM33.6437 24V18.1935H34.6364V16.2581H35.6291V14.3226H36.6219V12.3871H41.5854V13.3548H42.5781V14.3226H43.5709V24H33.6437Z" fill="#FFF100"/>
<path d="M65.4 16.7463L65.9693 17.3732L65.4 18L64.8307 17.3732L65.4 16.7463ZM70.8 12.0538L65.9693 17.3732L64.8307 16.1194L69.6614 10.8L70.8 12.0538ZM64.8307 17.3732L60 12.0538L61.1386 10.8L65.9693 16.1194L64.8307 17.3732Z" fill="#FFD600"/>
</svg>
