<svg width="18" height="19" viewBox="0 0 18 19" fill="none" xmlns="http://www.w3.org/2000/svg">
<path d="M0.899994 6.84389C0.899994 4.04416 0.899994 2.64431 1.78965 1.77454C2.67932 0.904785 4.11121 0.904785 6.97499 0.904785H11.025C13.8888 0.904785 15.3207 0.904785 16.2103 1.77454C17.1 2.64431 17.1 4.04416 17.1 6.84389V13.6022C17.1 16.2582 17.1 17.5862 16.2452 17.9925C15.3903 18.3986 14.3221 17.5782 12.1859 15.9372L11.5022 15.412C10.3009 14.4893 9.70037 14.028 8.99999 14.028C8.29962 14.028 7.69902 14.4893 6.49781 15.412L5.81413 15.9372C3.67783 17.5782 2.60969 18.3986 1.75484 17.9925C0.899994 17.5862 0.899994 16.2582 0.899994 13.6022V6.84389Z" stroke="#098877" stroke-width="2"/>
</svg>
