<svg width="31" height="22" viewBox="0 0 31 22" fill="none" xmlns="http://www.w3.org/2000/svg">
<path d="M21.1314 12.5413L21.3778 12.9764C21.1988 13.0778 21.0016 13.1269 20.7788 13.1823C20.764 13.186 20.749 13.1897 20.7338 13.1935L18.376 13.783C18.3672 13.7852 18.3583 13.7874 18.3493 13.7897C18.1926 13.8289 18.0253 13.8708 17.8847 13.8846C17.73 13.8997 17.469 13.8962 17.2596 13.6868C17.0501 13.4774 17.0466 13.2163 17.0617 13.0616C17.0755 12.921 17.1174 12.7537 17.1566 12.597C17.1589 12.5881 17.1611 12.5792 17.1633 12.5703L17.7528 10.2125C17.7566 10.1974 17.7603 10.1824 17.764 10.1675C17.8194 9.94472 17.8685 9.74754 17.9699 9.56852C18.0712 9.38948 18.2151 9.24596 18.3776 9.08382L21.1314 12.5413ZM21.1314 12.5413L21.3778 12.9764C21.5568 12.8751 21.7003 12.7312 21.8625 12.5688C21.8733 12.5579 21.8842 12.547 21.8953 12.5359L28.448 5.9832L28.4704 5.9608C28.7723 5.65894 29.0324 5.39881 29.2143 5.16272C29.4088 4.91014 29.5588 4.62959 29.5685 4.28295C29.5693 4.25483 29.5693 4.22669 29.5685 4.19857C29.5588 3.85192 29.4088 3.57138 29.2143 3.3188C29.0324 3.0827 28.7723 2.82258 28.4704 2.52071L28.448 2.49832L28.4256 2.47594C28.1237 2.17403 27.8636 1.91387 27.6275 1.73203C27.3749 1.53749 27.0944 1.38754 26.7477 1.37779C26.7196 1.377 26.6915 1.377 26.6634 1.37779C26.3167 1.38754 26.0362 1.53749 25.7836 1.73203C25.5475 1.91387 25.2874 2.17403 24.9855 2.47593L24.9631 2.49831L18.4104 9.05105L21.1314 12.5413Z" stroke="#098877"/>
<path d="M24.3906 2.85185L27.1684 1L29.9462 3.77778L28.0943 6.55556L24.3906 2.85185Z" fill="#098877"/>
<path d="M10.0875 11.0871C12.5969 11.0871 14.6311 9.05291 14.6311 6.54357C14.6311 4.03423 12.5969 2 10.0875 2C7.57817 2 5.54395 4.03423 5.54395 6.54357C5.54395 9.05291 7.57817 11.0871 10.0875 11.0871Z" stroke="#098877" stroke-width="2" stroke-linecap="round"/>
<path d="M18.6933 20.4485C18.1806 19.0664 17.0507 17.8451 15.4789 16.9741C13.9071 16.103 11.9812 15.6309 10 15.6309C8.01879 15.6309 6.09295 16.103 4.52115 16.9741C2.94935 17.8451 1.81944 19.0664 1.30667 20.4485" stroke="#098877" stroke-width="2" stroke-linecap="round"/>
</svg>
