<svg width="319" height="168" viewBox="0 0 319 168" fill="none" xmlns="http://www.w3.org/2000/svg">
<path d="M318.237 1H1V167.394H318.237V1Z" fill="#E2DFDF"/>
<g filter="url(#filter0_i)">
<path d="M158.722 54.0811L316.965 163.715H0.480103L158.722 54.0811Z" fill="#F3F0F0"/>
</g>
<path d="M159.168 147.94L317.41 0.984863H0.925537L159.168 147.94Z" fill="white"/>
<path d="M81.6153 84.6299C81.242 83.3232 80.682 82.1099 79.9353 80.9899C79.2353 79.8232 78.372 78.8432 77.3453 78.0499C76.3186 77.2099 75.152 76.5566 73.8453 76.0899C72.5853 75.6232 71.232 75.3899 69.7853 75.3899C68.3386 75.3899 66.962 75.6232 65.6553 76.0899C64.3953 76.5566 63.252 77.2099 62.2253 78.0499C61.1986 78.8432 60.312 79.8232 59.5653 80.9899C58.8186 82.1099 58.282 83.3232 57.9553 84.6299H81.6153ZM69.7853 105.84C67.2653 105.84 64.8853 105.373 62.6453 104.44C60.452 103.46 58.5153 102.153 56.8353 100.52C55.202 98.8399 53.8953 96.9032 52.9153 94.7099C51.982 92.5166 51.5153 90.1599 51.5153 87.6399C51.5153 85.1199 51.982 82.7399 52.9153 80.4999C53.8953 78.2599 55.202 76.3232 56.8353 74.6899C58.5153 73.0566 60.452 71.7732 62.6453 70.8399C64.8853 69.8599 67.2653 69.3699 69.7853 69.3699C72.3053 69.3699 74.662 69.8599 76.8553 70.8399C79.0953 71.7732 81.032 73.0566 82.6653 74.6899C84.2986 76.3232 85.582 78.2599 86.5153 80.4999C87.4953 82.7399 87.9853 85.1199 87.9853 87.6399C87.9853 87.9666 87.9853 88.3166 87.9853 88.6899C87.9853 89.0632 87.9386 89.6932 87.8453 90.5799H57.9553C58.282 91.9332 58.8186 93.1699 59.5653 94.2899C60.312 95.4099 61.1986 96.3899 62.2253 97.2299C63.252 98.0699 64.3953 98.7232 65.6553 99.1899C66.962 99.6566 68.3386 99.8899 69.7853 99.8899C70.9053 99.8899 72.0253 99.6099 73.1453 99.0499C74.2653 98.4432 75.3386 97.6499 76.3653 96.6699L80.5653 100.87C79.0253 102.363 77.322 103.577 75.4553 104.51C73.6353 105.397 71.7453 105.84 69.7853 105.84ZM112.171 69.1599C114.551 69.1599 116.768 69.5799 118.821 70.4199C120.921 71.2599 122.788 72.4032 124.421 73.8499V53.6899H130.371V87.4299C130.371 89.9499 129.881 92.3299 128.901 94.5699C127.968 96.7632 126.685 98.6766 125.051 100.31C123.418 101.943 121.481 103.25 119.241 104.23C117.048 105.163 114.691 105.63 112.171 105.63C109.651 105.63 107.295 105.163 105.101 104.23C102.908 103.25 100.971 101.943 99.291 100.31C97.658 98.6766 96.351 96.7632 95.3714 94.5699C94.4381 92.3299 93.9714 89.9499 93.9714 87.4299C93.9714 84.9099 94.4381 82.5532 95.3714 80.3599C96.351 78.1199 97.658 76.1832 99.291 74.5499C100.971 72.8699 102.908 71.5632 105.101 70.6299C107.295 69.6499 109.651 69.1599 112.171 69.1599ZM112.171 75.1799C110.491 75.1799 108.905 75.5066 107.411 76.1599C105.918 76.7666 104.611 77.6299 103.491 78.7499C102.418 79.8699 101.555 81.1766 100.901 82.6699C100.248 84.1632 99.921 85.7499 99.921 87.4299C99.921 89.1099 100.248 90.6966 100.901 92.1899C101.555 93.6832 102.418 94.9899 103.491 96.1099C104.611 97.1832 105.918 98.0466 107.411 98.6999C108.905 99.3532 110.491 99.6799 112.171 99.6799C113.851 99.6799 115.438 99.3532 116.931 98.6999C118.425 98.0466 119.731 97.1832 120.851 96.1099C121.971 94.9899 122.835 93.6832 123.441 92.1899C124.095 90.6966 124.421 89.1099 124.421 87.4299C124.421 85.7499 124.095 84.1632 123.441 82.6699C122.835 81.1766 121.971 79.8699 120.851 78.7499C119.731 77.6299 118.425 76.7666 116.931 76.1599C115.438 75.5066 113.851 75.1799 112.171 75.1799ZM136.963 96.6699H143.053V104.79H136.963V96.6699ZM162.175 69.2299C164.415 69.2299 166.469 69.7199 168.335 70.6999C170.249 71.6799 171.859 73.0099 173.165 74.6899C174.519 73.0099 176.129 71.6799 177.995 70.6999C179.862 69.7199 181.939 69.2299 184.225 69.2299C186.139 69.2299 187.935 69.6032 189.615 70.3499C191.342 71.0966 192.835 72.0999 194.095 73.3599C195.355 74.6199 196.359 76.1132 197.105 77.8399C197.852 79.5199 198.225 81.3166 198.225 83.2299V105H192.205V83.2299C192.205 82.1099 191.995 81.0832 191.575 80.1499C191.155 79.1699 190.572 78.3299 189.825 77.6299C189.125 76.8832 188.285 76.2999 187.305 75.8799C186.372 75.4599 185.345 75.2499 184.225 75.2499C183.105 75.2499 182.055 75.4599 181.075 75.8799C180.095 76.2999 179.232 76.8832 178.485 77.6299C177.785 78.3299 177.225 79.1699 176.805 80.1499C176.385 81.0832 176.175 82.1099 176.175 83.2299V105H170.225V83.2299C170.225 82.1099 170.015 81.0832 169.595 80.1499C169.175 79.1699 168.592 78.3299 167.845 77.6299C167.099 76.8832 166.235 76.2999 165.255 75.8799C164.322 75.4599 163.295 75.2499 162.175 75.2499C161.055 75.2499 160.005 75.4599 159.025 75.8799C158.045 76.2999 157.182 76.8832 156.435 77.6299C155.735 78.3299 155.175 79.1699 154.755 80.1499C154.335 81.0832 154.125 82.1099 154.125 83.2299V105H148.175V83.2299C148.175 81.3166 148.549 79.5199 149.295 77.8399C150.042 76.1132 151.045 74.6199 152.305 73.3599C153.565 72.0999 155.035 71.0966 156.715 70.3499C158.442 69.6032 160.262 69.2299 162.175 69.2299ZM222.969 69.1599C225.489 69.1599 227.869 69.6499 230.109 70.6299C232.349 71.5632 234.285 72.8699 235.919 74.5499C237.599 76.1832 238.905 78.1199 239.839 80.3599C240.819 82.5532 241.309 84.9099 241.309 87.4299V104.93H235.219V101.01C233.585 102.457 231.719 103.6 229.619 104.44C227.565 105.233 225.349 105.63 222.969 105.63C220.449 105.63 218.092 105.163 215.899 104.23C213.705 103.25 211.769 101.943 210.089 100.31C208.455 98.6766 207.149 96.7632 206.169 94.5699C205.235 92.3299 204.769 89.9499 204.769 87.4299C204.769 84.9099 205.235 82.5532 206.169 80.3599C207.149 78.1199 208.455 76.1832 210.089 74.5499C211.769 72.8699 213.705 71.5632 215.899 70.6299C218.092 69.6499 220.449 69.1599 222.969 69.1599ZM222.969 75.1799C221.289 75.1799 219.702 75.5066 218.209 76.1599C216.715 76.7666 215.409 77.6299 214.289 78.7499C213.215 79.8699 212.352 81.1766 211.699 82.6699C211.045 84.1632 210.719 85.7499 210.719 87.4299C210.719 89.1099 211.045 90.6966 211.699 92.1899C212.352 93.6832 213.215 94.9899 214.289 96.1099C215.409 97.1832 216.715 98.0466 218.209 98.6999C219.702 99.3532 221.289 99.6799 222.969 99.6799C224.695 99.6799 226.305 99.3532 227.799 98.6999C229.292 98.0466 230.575 97.1832 231.649 96.1099C232.769 94.9899 233.632 93.6832 234.239 92.1899C234.892 90.6966 235.219 89.1099 235.219 87.4299C235.219 85.7499 234.892 84.1632 234.239 82.6699C233.632 81.1766 232.769 79.8699 231.649 78.7499C230.575 77.6299 229.292 76.7666 227.799 76.1599C226.305 75.5066 224.695 75.1799 222.969 75.1799ZM247.977 69.9999H253.997V105H247.977V69.9999ZM247.977 53.7599H253.997V61.8799H247.977V53.7599ZM259.666 53.7599H265.616V95.8999C265.616 96.9732 266.106 97.8832 267.086 98.6299C268.113 99.3766 269.326 99.7499 270.726 99.7499V105.7C269.186 105.7 267.74 105.443 266.386 104.93C265.08 104.417 263.913 103.717 262.886 102.83C261.906 101.943 261.113 100.917 260.506 99.7499C259.946 98.5366 259.666 97.2532 259.666 95.8999V53.7599Z" fill="#006457"/>
<defs>
<filter id="filter0_i" x="0.480103" y="54.0811" width="316.485" height="113.634" filterUnits="userSpaceOnUse" color-interpolation-filters="sRGB">
<feFlood flood-opacity="0" result="BackgroundImageFix"/>
<feBlend mode="normal" in="SourceGraphic" in2="BackgroundImageFix" result="shape"/>
<feColorMatrix in="SourceAlpha" type="matrix" values="0 0 0 0 0 0 0 0 0 0 0 0 0 0 0 0 0 0 127 0" result="hardAlpha"/>
<feOffset dy="4"/>
<feGaussianBlur stdDeviation="2"/>
<feComposite in2="hardAlpha" operator="arithmetic" k2="-1" k3="1"/>
<feColorMatrix type="matrix" values="0 0 0 0 0 0 0 0 0 0 0 0 0 0 0 0 0 0 0.25 0"/>
<feBlend mode="normal" in2="shape" result="effect1_innerShadow"/>
</filter>
</defs>
</svg>
