<svg width="22" height="26" viewBox="0 0 22 26" fill="none" xmlns="http://www.w3.org/2000/svg">
<g clip-path="url(#clip0)">
<path d="M0.916656 12.675C0.916656 10.6324 0.916657 9.61117 1.31201 8.71344C1.70736 7.81575 2.44985 7.15111 3.93482 5.82185L5.3753 4.53241C8.05936 2.12978 9.40141 0.928467 11 0.928467C12.5986 0.928467 13.9407 2.12978 16.6247 4.53241L18.0652 5.82185C19.5501 7.15111 20.2926 7.81575 20.688 8.71344C21.0833 9.61117 21.0833 10.6324 21.0833 12.675V19.0539C21.0833 21.8906 21.0833 23.3089 20.2395 24.1901C19.3957 25.0713 18.0376 25.0713 15.3214 25.0713H6.67856C3.96237 25.0713 2.60428 25.0713 1.76047 24.1901C0.916656 23.3089 0.916656 21.8906 0.916656 19.0539V12.675Z" stroke="#58585A" stroke-width="2"/>
<path d="M14.6667 25.0715V16.7143C14.6667 16.2015 14.2563 15.7858 13.75 15.7858H8.25001C7.74375 15.7858 7.33334 16.2015 7.33334 16.7143V25.0715" stroke="#58585A" stroke-width="2" stroke-linecap="round" stroke-linejoin="round"/>
</g>
<defs>
<clipPath id="clip0">
<rect width="22" height="26" fill="white"/>
</clipPath>
</defs>
</svg>
