<svg width="425" height="98" viewBox="0 0 425 98" fill="none" xmlns="http://www.w3.org/2000/svg">
<path d="M43.1 44.9C42.5667 43.0333 41.7667 41.3 40.7 39.7C39.7 38.0333 38.4667 36.6333 37 35.5C35.5333 34.3 33.8667 33.3667 32 32.7C30.2 32.0333 28.2667 31.7 26.2 31.7C24.1333 31.7 22.1667 32.0333 20.3 32.7C18.5 33.3667 16.8667 34.3 15.4 35.5C13.9333 36.6333 12.6667 38.0333 11.6 39.7C10.5333 41.3 9.76665 43.0333 9.29998 44.9H43.1ZM26.2 75.2C22.6 75.2 19.2 74.5333 16 73.2C12.8667 71.8 10.1 69.9333 7.69998 67.6C5.36665 65.2 3.49998 62.4333 2.09998 59.3C0.766642 56.1667 0.0999756 52.8 0.0999756 49.2C0.0999756 45.6 0.766642 42.2 2.09998 39C3.49998 35.8 5.36665 33.0333 7.69998 30.7C10.1 28.3667 12.8667 26.5333 16 25.2C19.2 23.8 22.6 23.1 26.2 23.1C29.8 23.1 33.1667 23.8 36.3 25.2C39.5 26.5333 42.2667 28.3667 44.6 30.7C46.9333 33.0333 48.7667 35.8 50.1 39C51.5 42.2 52.2 45.6 52.2 49.2C52.2 49.6667 52.2 50.1667 52.2 50.7C52.2 51.2333 52.1333 52.1333 52 53.4H9.29998C9.76665 55.3333 10.5333 57.1 11.6 58.7C12.6667 60.3 13.9333 61.7 15.4 62.9C16.8667 64.1 18.5 65.0333 20.3 65.7C22.1667 66.3667 24.1333 66.7 26.2 66.7C27.8 66.7 29.4 66.3 31 65.5C32.6 64.6333 34.1333 63.5 35.6 62.1L41.6 68.1C39.4 70.2333 36.9667 71.9667 34.3 73.3C31.7 74.5667 29 75.2 26.2 75.2ZM86.7516 22.8C90.1516 22.8 93.3182 23.4 96.2516 24.6C99.2516 25.8 101.918 27.4333 104.252 29.5V0.699951H112.752V48.9C112.752 52.5 112.052 55.9 110.652 59.1C109.318 62.2333 107.485 64.9667 105.152 67.3C102.818 69.6333 100.052 71.5 96.8516 72.9C93.7182 74.2333 90.3516 74.9 86.7516 74.9C83.1516 74.9 79.7849 74.2333 76.6516 72.9C73.5182 71.5 70.7516 69.6333 68.3516 67.3C66.0182 64.9667 64.1516 62.2333 62.7516 59.1C61.4182 55.9 60.7516 52.5 60.7516 48.9C60.7516 45.3 61.4182 41.9333 62.7516 38.8C64.1516 35.6 66.0182 32.8333 68.3516 30.5C70.7516 28.1 73.5182 26.2333 76.6516 24.9C79.7849 23.5 83.1516 22.8 86.7516 22.8ZM86.7516 31.4C84.3516 31.4 82.0849 31.8667 79.9516 32.8C77.8182 33.6667 75.9516 34.9 74.3516 36.5C72.8182 38.1 71.5849 39.9667 70.6516 42.1C69.7182 44.2333 69.2516 46.5 69.2516 48.9C69.2516 51.3 69.7182 53.5667 70.6516 55.7C71.5849 57.8333 72.8182 59.7 74.3516 61.3C75.9516 62.8333 77.8182 64.0667 79.9516 65C82.0849 65.9333 84.3516 66.4 86.7516 66.4C89.1516 66.4 91.4182 65.9333 93.5516 65C95.6849 64.0667 97.5516 62.8333 99.1516 61.3C100.752 59.7 101.985 57.8333 102.852 55.7C103.785 53.5667 104.252 51.3 104.252 48.9C104.252 46.5 103.785 44.2333 102.852 42.1C101.985 39.9667 100.752 38.1 99.1516 36.5C97.5516 34.9 95.6849 33.6667 93.5516 32.8C91.4182 31.8667 89.1516 31.4 86.7516 31.4ZM122.168 62.1H130.868V73.7H122.168V62.1ZM188.486 24L166.986 74H159.386L137.886 24H147.186L163.186 61.5C165.853 55.3 168.519 49.0333 171.186 42.7C173.919 36.3 176.586 30.0667 179.186 24H188.486ZM233.041 44.9C232.508 43.0333 231.708 41.3 230.641 39.7C229.641 38.0333 228.408 36.6333 226.941 35.5C225.475 34.3 223.808 33.3667 221.941 32.7C220.141 32.0333 218.208 31.7 216.141 31.7C214.075 31.7 212.108 32.0333 210.241 32.7C208.441 33.3667 206.808 34.3 205.341 35.5C203.875 36.6333 202.608 38.0333 201.541 39.7C200.475 41.3 199.708 43.0333 199.241 44.9H233.041ZM216.141 75.2C212.541 75.2 209.141 74.5333 205.941 73.2C202.808 71.8 200.041 69.9333 197.641 67.6C195.308 65.2 193.441 62.4333 192.041 59.3C190.708 56.1667 190.041 52.8 190.041 49.2C190.041 45.6 190.708 42.2 192.041 39C193.441 35.8 195.308 33.0333 197.641 30.7C200.041 28.3667 202.808 26.5333 205.941 25.2C209.141 23.8 212.541 23.1 216.141 23.1C219.741 23.1 223.108 23.8 226.241 25.2C229.441 26.5333 232.208 28.3667 234.541 30.7C236.875 33.0333 238.708 35.8 240.041 39C241.441 42.2 242.141 45.6 242.141 49.2C242.141 49.6667 242.141 50.1667 242.141 50.7C242.141 51.2333 242.075 52.1333 241.941 53.4H199.241C199.708 55.3333 200.475 57.1 201.541 58.7C202.608 60.3 203.875 61.7 205.341 62.9C206.808 64.1 208.441 65.0333 210.241 65.7C212.108 66.3667 214.075 66.7 216.141 66.7C217.741 66.7 219.341 66.3 220.941 65.5C222.541 64.6333 224.075 63.5 225.541 62.1L231.541 68.1C229.341 70.2333 226.908 71.9667 224.241 73.3C221.641 74.5667 218.941 75.2 216.141 75.2ZM260.458 74H251.858V49C251.858 45.4 252.591 42 254.058 38.8C255.524 35.6 257.524 32.8333 260.058 30.5C262.591 28.1667 265.524 26.3333 268.858 25C272.258 23.6 275.891 22.9 279.758 22.9V31.5C277.091 31.5 274.591 31.9667 272.258 32.9C269.924 33.7667 267.858 35 266.058 36.6C264.324 38.2 262.958 40.0667 261.958 42.2C260.958 44.3333 260.458 46.6 260.458 49V74ZM302.088 52.7C300.222 52.7 298.455 52.3667 296.788 51.7C295.188 51.0333 293.755 50.1333 292.488 49C291.222 47.8 290.188 46.4 289.388 44.8C288.655 43.2 288.255 41.4667 288.188 39.6C288.122 39.2 288.088 38.7 288.088 38.1C288.088 37.4333 288.122 36.9 288.188 36.5C288.255 34.7 288.655 33 289.388 31.4C290.188 29.8 291.222 28.4 292.488 27.2C293.755 26 295.188 25.0667 296.788 24.4C298.455 23.7333 300.222 23.4 302.088 23.4H321.288V32H302.088C300.688 32 299.455 32.5 298.388 33.5C297.388 34.4333 296.822 35.6333 296.688 37.1C296.555 37.7667 296.555 38.4667 296.688 39.2C296.822 40.6 297.388 41.8 298.388 42.8C299.455 43.7333 300.688 44.2 302.088 44.2H308.988C310.855 44.2 312.622 44.5667 314.288 45.3C315.955 45.9667 317.388 46.9 318.588 48.1C319.855 49.3 320.855 50.7 321.588 52.3C322.388 53.9 322.822 55.6333 322.888 57.5V60.3C322.888 62.2333 322.488 64.0333 321.688 65.7C320.955 67.3 319.955 68.7333 318.688 70C317.488 71.2667 316.022 72.2667 314.288 73C312.622 73.6667 310.822 74 308.888 74H289.188V65.5H308.888C310.222 65.5 311.355 65.0667 312.288 64.2C313.288 63.3333 313.955 62.3 314.288 61.1V60.7C314.288 60.5667 314.288 60.4667 314.288 60.4C314.355 60.2667 314.388 60.1333 314.388 60V58.1C314.322 56.5667 313.755 55.3 312.688 54.3C311.688 53.2333 310.422 52.7 308.888 52.7H302.088ZM332.224 24H340.824V74H332.224V24ZM332.224 0.79995H340.824V12.4H332.224V0.79995ZM349.423 12H358.023V24.2H375.523V32.7H358.023V60.8C358.023 62.2667 358.523 63.5333 359.523 64.6C360.59 65.6 361.89 66.1 363.423 66.1C364.957 66.1 366.223 65.4 367.223 64C368.29 62.6 368.823 60.9 368.823 58.9H377.323C377.323 61.1 376.957 63.1667 376.223 65.1C375.49 66.9667 374.49 68.6333 373.223 70.1C372.023 71.5 370.557 72.6333 368.823 73.5C367.157 74.3 365.357 74.7 363.423 74.7C361.49 74.7 359.657 74.3333 357.923 73.6C356.257 72.8667 354.79 71.8667 353.523 70.6C352.257 69.3333 351.257 67.8667 350.523 66.2C349.79 64.5333 349.423 62.7333 349.423 60.8V12ZM404.475 74.9C401.742 74.9 399.142 74.3667 396.675 73.3C394.275 72.2333 392.175 70.8 390.375 69C388.575 67.2 387.142 65.1 386.075 62.7C385.008 60.2333 384.475 57.6333 384.475 54.9V23.9H393.075V54.9C393.075 56.5 393.375 58 393.975 59.4C394.575 60.8 395.375 62.0333 396.375 63.1C397.442 64.1 398.642 64.9 399.975 65.5C401.375 66.1 402.875 66.4 404.475 66.4C406.075 66.4 407.575 66.1 408.975 65.5C410.375 64.9 411.575 64.1 412.575 63.1C413.642 62.0333 414.475 60.8 415.075 59.4C415.675 58 415.975 56.5 415.975 54.9V23.9H424.475V77.3C424.475 80.1 423.908 82.7 422.775 85.1C421.642 87.5667 420.075 89.7 418.075 91.5C416.142 93.3 413.842 94.7 411.175 95.7C408.508 96.7667 405.642 97.3 402.575 97.3V88.8C404.442 88.8 406.175 88.5 407.775 87.9C409.442 87.3 410.875 86.4667 412.075 85.4C413.275 84.3333 414.208 83.1 414.875 81.7C415.608 80.3667 415.975 78.9 415.975 77.3V71.3C414.308 72.4333 412.508 73.3333 410.575 74C408.642 74.6 406.608 74.9 404.475 74.9Z" fill="white"/>
</svg>
