<svg width="51" height="57" viewBox="0 0 51 57" fill="none" xmlns="http://www.w3.org/2000/svg">
<path d="M25.5038 0C17.3644 0 10.7108 6.65643 10.7108 14.7993C10.7108 22.9423 17.3644 29.5987 25.5038 29.5987C33.6432 29.5987 40.2968 22.9423 40.2968 14.7993C40.2968 6.65643 33.6432 0 25.5038 0Z" fill="#A7A9AC"/>
<path d="M50.891 41.4252C50.5034 40.4558 49.9867 39.551 49.4053 38.7109C46.4337 34.3163 41.8474 31.4081 36.6795 30.6972C36.0336 30.6327 35.323 30.7618 34.8062 31.1496C32.093 33.153 28.8632 34.187 25.504 34.187C22.1448 34.187 18.915 33.153 16.2018 31.1496C15.685 30.7618 14.9744 30.568 14.3285 30.6972C9.16063 31.4081 4.50961 34.3163 1.60272 38.7109C1.02134 39.551 0.504505 40.5205 0.117002 41.4252C-0.0767494 41.813 -0.0122069 42.2653 0.181545 42.6531C0.69838 43.5579 1.3443 44.4627 1.92568 45.2382C2.83002 46.4661 3.79902 47.5647 4.89723 48.5987C5.80157 49.5034 6.83512 50.3436 7.86879 51.1837C12.972 54.9967 19.1088 57 25.4395 57C31.7701 57 37.9069 54.9966 43.0101 51.1837C44.0437 50.4083 45.0772 49.5034 45.9817 48.5987C47.0152 47.5647 48.0488 46.466 48.9532 45.2382C49.5992 44.398 50.1807 43.5579 50.6974 42.6531C51.0202 42.2653 51.0847 41.8129 50.891 41.4252Z" fill="#A7A9AC"/>
</svg>
