<svg width="32" height="34" viewBox="0 0 32 34" fill="none" xmlns="http://www.w3.org/2000/svg">
<path d="M15.9976 0C21.1046 0 25.2794 3.9705 25.2794 8.82768C25.2794 13.6849 21.1046 17.6554 15.9976 17.6554C10.8905 17.6554 6.71569 13.6849 6.71569 8.82768C6.71569 3.9705 10.8905 0 15.9976 0Z" fill="#098877"/>
<path d="M0.0683924 24.7098C0.311609 24.1315 0.63582 23.5919 1.00061 23.0907C2.86511 20.4694 5.74283 18.7347 8.98541 18.3106C9.39069 18.2721 9.83655 18.3492 10.1608 18.5805C11.8632 19.7755 13.8898 20.3923 15.9975 20.3923C18.1052 20.3923 20.1318 19.7755 21.8341 18.5805C22.1584 18.3492 22.6043 18.2335 23.0096 18.3106C26.2522 18.7347 29.1704 20.4694 30.9944 23.0907C31.3592 23.5919 31.6834 24.1701 31.9266 24.7098C32.0482 24.9411 32.0077 25.2109 31.8861 25.4422C31.5618 25.9819 31.1565 26.5216 30.7917 26.9842C30.2243 27.7166 29.6163 28.3719 28.9272 28.9887C28.3598 29.5284 27.7113 30.0295 27.0627 30.5306C23.8607 32.8051 20.0101 34 16.038 34C12.0658 34 8.21526 32.805 5.01325 30.5306C4.36475 30.0681 3.71625 29.5284 3.14875 28.9887C2.50025 28.3719 1.85175 27.7166 1.28424 26.9842C0.878959 26.483 0.514096 25.9819 0.189885 25.4422C-0.0126791 25.2109 -0.0531772 24.941 0.0683924 24.7098Z" fill="#098877"/>
</svg>
